<?xml version="1.0" standalone="no"?>
<!DOCTYPE svg PUBLIC "-//W3C//DTD SVG 20010904//EN"
 "http://www.w3.org/TR/2001/REC-SVG-20010904/DTD/svg10.dtd">
<svg version="1.0" xmlns="http://www.w3.org/2000/svg"
 width="738.000000pt" height="738.000000pt" viewBox="0 0 738.000000 738.000000"
 preserveAspectRatio="xMidYMid meet">
<metadata>
Created by potrace 1.14, written by Peter Selinger 2001-2017
</metadata>
<g transform="translate(0.000000,738.000000) scale(0.100000,-0.100000)"
fill="#000000" stroke="none">
<path d="M3573 6144 c-5 -13 -7 -13 -14 -2 -7 11 -9 11 -9 -1 0 -10 -3 -11
-14 -2 -11 9 -16 9 -22 0 -5 -8 -3 -9 6 -4 9 6 11 4 5 -5 -6 -10 -11 -9 -22 5
-7 11 -13 13 -13 6 0 -7 -4 -9 -10 -6 -5 3 -10 1 -10 -6 0 -10 -3 -10 -12 -1
-17 17 -28 15 -28 -4 0 -8 -5 -12 -10 -9 -6 4 -8 12 -4 18 3 7 -1 4 -9 -6 -10
-12 -16 -14 -19 -6 -3 8 -9 9 -19 3 -8 -5 -31 -9 -51 -10 -21 0 -41 -4 -45 -9
-5 -4 -1 -5 7 0 8 5 12 4 7 0 -10 -11 -39 -16 -32 -6 2 4 -2 8 -10 8 -8 0 -12
-4 -9 -9 5 -7 -11 -10 -63 -11 -13 0 -20 -4 -16 -10 4 -6 -2 -8 -15 -5 -12 4
-22 2 -22 -3 0 -6 -8 -5 -20 1 -15 8 -18 8 -14 -3 3 -8 -2 -14 -11 -14 -8 0
-15 4 -15 9 0 5 -5 6 -10 3 -6 -4 -8 -10 -5 -15 3 -5 0 -12 -6 -16 -8 -4 -9
-3 -5 4 10 16 -7 15 -23 0 -11 -10 -13 -10 -7 0 4 6 3 12 -2 12 -6 0 -13 -8
-16 -17 -6 -15 -8 -15 -16 -3 -7 11 -10 12 -10 2 0 -7 -4 -10 -10 -7 -5 3 -10
1 -10 -5 0 -7 -7 -9 -16 -6 -10 4 -13 2 -8 -6 5 -7 2 -9 -8 -5 -9 3 -21 0 -27
-6 -9 -9 -14 -9 -20 1 -7 11 -10 10 -14 -3 -5 -11 -3 -14 6 -9 7 4 9 3 4 -2
-5 -5 -12 -9 -15 -9 -4 0 -13 -4 -21 -9 -11 -7 -12 -6 -5 5 6 10 0 9 -19 -3
-31 -21 -41 -23 -32 -5 4 6 0 4 -8 -5 -8 -10 -17 -15 -20 -11 -4 3 -7 1 -7 -6
0 -7 -6 -11 -12 -8 -7 2 -19 -3 -25 -12 -11 -14 -14 -14 -23 -1 -6 10 -10 11
-10 3 0 -7 -10 -17 -21 -24 -17 -9 -20 -8 -14 3 4 7 -2 2 -13 -11 -15 -18 -21
-21 -25 -10 -4 11 -6 11 -6 1 -1 -7 -5 -11 -10 -7 -5 3 -13 0 -17 -6 -4 -8 -3
-9 4 -5 7 4 12 2 12 -5 0 -6 -8 -9 -20 -6 -13 3 -20 0 -20 -9 0 -8 -5 -14 -11
-14 -5 0 -7 5 -3 12 4 6 -4 3 -18 -8 -14 -10 -24 -22 -22 -25 2 -4 -2 -7 -9
-6 -31 1 -48 -4 -42 -12 3 -5 -11 -15 -30 -21 -19 -6 -35 -16 -35 -22 0 -6 -6
-5 -15 2 -13 11 -14 10 -9 -5 5 -13 4 -16 -4 -11 -8 4 -12 0 -12 -11 0 -14 -2
-15 -9 -4 -6 9 -11 10 -15 2 -4 -6 -4 -11 1 -11 4 0 0 -5 -10 -11 -9 -5 -22
-7 -29 -3 -6 4 -9 3 -6 -2 3 -5 0 -15 -8 -22 -8 -7 -14 -9 -14 -5 0 4 -10 -3
-21 -17 -11 -14 -17 -18 -13 -10 4 8 -7 0 -24 -19 -17 -18 -35 -30 -40 -27 -5
3 -14 -6 -20 -19 -7 -14 -18 -25 -27 -25 -13 0 -19 -11 -17 -31 1 -4 -8 -4
-20 -1 -14 3 -19 1 -14 -6 4 -7 -2 -16 -17 -21 -13 -5 -27 -17 -30 -25 -4 -9
-14 -16 -22 -16 -9 0 -13 -4 -10 -10 3 -5 -1 -10 -10 -10 -11 0 -15 -5 -12
-14 4 -10 0 -13 -14 -11 -17 4 -19 2 -8 -11 9 -12 9 -13 -2 -9 -8 3 -22 -6
-33 -20 -10 -14 -26 -25 -35 -25 -14 0 -14 -2 -1 -10 13 -9 7 -14 -12 -11 -8
1 -12 -15 -9 -31 0 -5 -5 -8 -13 -8 -8 0 -17 -7 -20 -16 -3 -9 -11 -12 -18 -8
-8 5 -8 1 2 -12 8 -10 11 -16 6 -12 -11 10 -48 -10 -41 -22 3 -5 -3 -15 -15
-22 -11 -7 -20 -21 -20 -31 0 -10 -4 -15 -10 -12 -5 3 -10 1 -10 -5 0 -6 -12
-23 -27 -38 -15 -15 -28 -34 -28 -42 0 -8 -6 -14 -13 -12 -8 1 -11 -2 -7 -8 3
-5 1 -10 -5 -10 -6 0 -8 -4 -5 -10 3 -5 -2 -10 -12 -10 -15 0 -16 -2 -3 -10
13 -9 13 -10 0 -11 -8 -1 -19 -1 -24 0 -5 1 -3 -6 5 -15 12 -15 12 -17 0 -9
-11 6 -13 4 -8 -8 4 -12 1 -17 -10 -17 -9 0 -13 -3 -10 -7 4 -3 -3 -13 -15
-21 -20 -15 -20 -16 -2 -30 13 -10 14 -13 4 -9 -10 3 -22 -6 -33 -25 -10 -18
-12 -26 -4 -23 6 4 1 -2 -12 -13 -13 -11 -21 -24 -17 -31 4 -6 2 -11 -4 -11
-7 0 -9 -7 -6 -16 3 -8 2 -13 -3 -10 -5 3 -11 -4 -14 -15 -3 -12 -10 -18 -15
-15 -5 3 -8 -6 -6 -19 1 -14 -1 -25 -6 -25 -4 0 -10 -9 -13 -21 -4 -14 -10
-18 -19 -14 -10 6 -10 5 -1 -5 9 -10 7 -16 -9 -30 -18 -14 -19 -20 -9 -39 11
-21 11 -22 -6 -12 -17 9 -19 7 -15 -21 4 -23 2 -29 -8 -23 -8 5 -11 4 -6 -3 3
-6 2 -13 -4 -17 -7 -4 -6 -13 1 -27 9 -16 8 -19 -2 -13 -9 6 -11 3 -6 -8 3 -9
2 -19 -4 -23 -6 -3 -8 -12 -5 -20 3 -8 0 -11 -8 -8 -8 3 -17 0 -22 -7 -4 -7
-3 -10 4 -5 6 3 13 2 17 -4 3 -5 -1 -10 -10 -10 -13 0 -14 -4 -4 -21 8 -15 8
-19 0 -15 -6 4 -11 2 -11 -4 0 -6 -4 -9 -9 -6 -5 4 -7 -2 -4 -13 3 -10 0 -22
-6 -25 -6 -4 -11 -12 -11 -19 0 -6 6 -3 13 7 13 17 14 18 20 2 4 -9 3 -14 -2
-11 -5 3 -12 -4 -16 -15 -4 -12 -11 -18 -18 -14 -9 5 -9 4 -1 -5 12 -13 7 -54
-5 -46 -4 2 -8 -2 -8 -10 0 -8 4 -15 9 -15 4 0 8 -5 8 -11 0 -5 -5 -7 -12 -3
-8 5 -9 2 -5 -9 4 -10 2 -17 -5 -17 -7 0 -6 -6 2 -16 11 -12 11 -15 0 -12 -7
2 -13 -7 -15 -19 -1 -12 1 -20 5 -18 4 2 7 -2 7 -10 0 -8 -4 -12 -9 -9 -11 7
-10 -10 2 -22 7 -7 5 -17 -6 -30 -8 -10 -12 -13 -8 -5 5 10 3 12 -5 7 -8 -6
-9 -12 -2 -20 7 -9 7 -17 -2 -26 -9 -10 -9 -11 1 -6 15 9 16 -6 0 -22 -9 -9
-9 -12 2 -12 11 0 11 -3 2 -12 -16 -16 -15 -31 1 -22 8 5 8 2 -2 -9 -11 -14
-11 -17 0 -17 12 0 12 -2 0 -9 -9 -6 -11 -16 -6 -32 7 -22 7 -23 -10 -9 -18
15 -18 14 0 -13 17 -27 17 -28 -1 -43 -10 -8 -14 -14 -9 -13 22 3 29 -2 15
-11 -10 -6 -11 -10 -2 -10 6 0 12 -5 12 -11 0 -5 -5 -7 -11 -3 -8 4 -8 1 -1
-13 7 -12 7 -25 1 -36 -7 -11 -6 -17 1 -17 5 0 10 -5 10 -11 0 -5 -5 -7 -11
-3 -8 5 -8 1 0 -14 13 -25 14 -35 3 -28 -5 3 -9 -1 -9 -9 0 -8 6 -15 14 -15
16 0 17 -16 1 -26 -7 -4 -8 -3 -4 4 10 17 1 15 -14 -4 -11 -12 -11 -15 0 -12
7 2 15 -3 18 -11 3 -9 0 -11 -8 -6 -7 4 -4 -5 6 -21 16 -24 17 -27 3 -22 -13
5 -16 2 -12 -13 3 -10 10 -19 16 -19 7 0 7 -4 -1 -12 -9 -9 -7 -18 11 -37 12
-14 14 -19 4 -12 -15 12 -17 11 -14 -7 2 -11 9 -27 15 -35 8 -9 9 -18 3 -21
-10 -7 -9 -19 6 -56 8 -18 7 -27 -1 -32 -11 -8 -1 -12 18 -9 5 1 4 -5 -4 -13
-7 -9 -8 -16 -3 -16 5 0 9 -9 10 -20 1 -13 -2 -18 -9 -14 -7 4 -8 2 -4 -5 6
-8 12 -9 20 -2 10 8 12 3 11 -22 -2 -17 1 -40 6 -49 6 -11 5 -18 -4 -21 -6 -3
-3 -6 8 -6 17 -1 17 -3 5 -11 -11 -7 -11 -10 -2 -10 7 0 11 -4 7 -9 -3 -5 2
-17 11 -25 15 -15 11 -21 -11 -16 -5 1 -1 -8 9 -19 10 -11 16 -27 13 -35 -4
-11 -1 -13 11 -9 15 6 15 5 3 -10 -10 -13 -10 -17 -1 -17 7 0 10 -8 7 -20 -5
-19 4 -25 27 -21 5 1 4 -4 -3 -13 -9 -11 -9 -16 0 -22 8 -5 9 -3 4 6 -5 9 -4
11 3 6 9 -5 9 -13 2 -26 -13 -24 -13 -40 0 -20 8 13 10 12 10 -2 0 -10 6 -18
13 -18 8 0 7 -4 -3 -10 -10 -6 -11 -10 -2 -10 6 0 12 -11 12 -24 0 -16 7 -26
22 -29 18 -5 19 -8 8 -21 -8 -11 -9 -16 -1 -16 6 0 11 -7 11 -16 0 -9 5 -12
13 -8 7 5 7 1 -3 -12 -8 -10 -10 -16 -6 -12 5 4 17 -2 27 -14 24 -27 24 -35 2
-17 -17 13 -17 13 0 -7 9 -11 14 -24 10 -27 -3 -4 1 -7 10 -7 10 0 17 -5 17
-11 0 -5 -4 -7 -10 -4 -6 3 -7 -1 -4 -10 5 -11 10 -13 19 -5 10 8 12 3 9 -22
-2 -17 -1 -29 2 -25 9 9 34 -19 34 -38 0 -11 5 -15 14 -12 11 4 13 1 9 -10 -5
-12 -3 -14 8 -8 12 8 12 6 0 -8 -11 -14 -11 -18 3 -23 9 -3 13 -11 9 -17 -4
-6 0 -8 10 -4 12 4 14 2 10 -10 -5 -12 -3 -14 7 -8 8 5 11 4 6 -3 -8 -14 22
-44 36 -36 7 4 8 2 4 -5 -4 -6 -12 -9 -17 -6 -5 4 -9 1 -9 -6 0 -6 8 -9 19 -6
14 3 18 1 14 -9 -3 -8 0 -14 7 -14 6 0 8 -4 5 -10 -3 -5 2 -10 12 -10 15 0 16
-2 3 -10 -12 -8 -10 -10 10 -10 20 0 22 -2 10 -10 -13 -9 -8 -14 12 -12 3 1 9
-5 12 -14 4 -10 2 -13 -6 -8 -7 4 -8 3 -4 -4 4 -7 14 -12 22 -12 13 0 18 -12
15 -32 0 -4 7 -4 17 -1 9 3 14 3 10 -1 -3 -4 11 -26 33 -49 69 -74 77 -86 70
-94 -3 -4 -2 -5 3 -1 12 10 46 -10 46 -28 0 -9 5 -12 12 -8 8 5 9 2 5 -9 -3
-9 -3 -16 1 -15 13 3 61 -25 57 -32 -3 -4 6 -15 20 -24 14 -9 25 -23 25 -32 0
-8 4 -13 9 -9 6 3 13 0 18 -7 4 -7 22 -20 38 -28 17 -9 30 -21 30 -27 0 -6 4
-15 9 -20 5 -5 6 -3 2 5 -10 16 2 15 19 -2 8 -7 11 -17 7 -22 -4 -5 2 -2 12 6
13 10 17 10 12 3 -4 -8 -2 -13 4 -13 6 0 8 -5 4 -12 -4 -6 -3 -8 4 -4 6 3 13
2 17 -4 4 -6 11 -7 17 -4 6 4 8 2 5 -3 -9 -14 14 -31 36 -27 12 1 17 -2 13
-11 -3 -9 0 -12 10 -8 7 3 14 0 14 -7 0 -6 5 -8 10 -5 6 3 10 1 10 -4 0 -6 7
-11 16 -11 8 0 13 -4 10 -9 -4 -5 3 -7 14 -4 14 4 20 0 20 -11 0 -9 8 -16 20
-16 11 0 20 -7 20 -15 0 -8 3 -14 8 -13 18 5 52 -15 53 -30 0 -14 2 -13 9 3 8
18 9 19 9 1 1 -12 6 -16 16 -12 8 3 15 1 15 -4 0 -6 7 -10 16 -10 9 0 12 -5 8
-12 -5 -10 -4 -10 6 -1 10 9 16 8 27 -3 8 -8 20 -11 26 -7 9 5 9 3 0 -8 -10
-12 -6 -14 23 -13 19 1 31 -2 28 -7 -5 -8 1 -11 35 -13 8 -1 18 -10 22 -21 5
-13 8 -15 8 -5 1 13 2 13 11 0 9 -13 10 -13 10 0 0 9 3 11 8 5 13 -18 56 -50
47 -36 -6 11 -4 13 9 8 10 -4 20 -7 22 -7 3 0 3 -4 0 -9 -8 -12 27 -8 36 4 5
6 8 3 8 -7 0 -12 5 -15 17 -11 11 4 14 3 9 -5 -4 -8 3 -10 24 -7 16 2 33 -1
36 -7 5 -7 2 -8 -7 -3 -12 7 -12 5 -1 -6 11 -12 14 -12 21 0 6 10 10 10 13 1
2 -6 16 -13 31 -13 15 -1 27 -5 27 -8 0 -4 16 -6 35 -5 25 1 35 -3 35 -14 0
-13 1 -13 10 0 7 11 10 12 10 2 0 -9 7 -11 20 -7 11 4 20 2 20 -4 0 -6 5 -11
11 -11 5 0 7 4 4 10 -3 6 1 7 9 4 9 -3 13 -11 10 -16 -4 -6 2 -5 14 1 14 7 23
8 27 1 9 -15 27 -12 19 3 -4 6 3 3 16 -8 13 -11 20 -14 16 -7 -6 9 0 11 25 7
19 -3 36 -11 40 -17 4 -7 8 -6 12 3 4 9 8 10 14 4 12 -15 33 -17 33 -2 0 8 4
7 10 -3 5 -8 10 -12 10 -8 0 4 14 3 30 -2 21 -6 30 -5 30 3 0 8 3 7 9 -2 7
-11 9 -11 14 0 3 9 6 7 6 -6 1 -15 3 -17 10 -6 6 9 11 10 15 2 5 -8 13 -8 28
0 16 9 23 8 29 -2 7 -12 11 -11 19 1 6 9 13 11 18 5 4 -5 17 -11 30 -11 17 -1
22 3 18 15 -5 13 -4 13 8 -1 15 -21 31 -24 20 -5 -6 9 -4 9 7 0 15 -15 33 -17
25 -4 -7 10 13 9 31 -2 6 -4 14 -1 16 5 4 10 6 9 6 -1 1 -11 4 -11 17 0 13 10
17 10 24 0 6 -10 14 -9 36 5 26 17 28 17 15 1 -8 -10 -9 -17 -3 -17 6 0 14 5
18 11 3 6 19 9 35 7 16 -3 31 0 33 6 3 7 5 7 5 -1 1 -8 10 -9 30 -3 16 4 32 6
35 2 3 -3 6 0 6 6 0 6 7 9 17 5 12 -5 14 -3 9 8 -4 8 -2 7 6 -2 11 -14 15 -14
26 -2 11 12 17 12 30 1 9 -7 13 -8 9 -2 -4 7 2 14 13 17 11 3 18 1 14 -4 -3
-5 2 -6 10 -3 9 3 16 11 16 16 0 6 6 5 15 -2 11 -9 15 -9 15 -1 0 7 5 9 10 6
6 -3 10 0 10 7 0 10 2 10 9 -1 6 -9 11 -10 15 -2 4 6 14 11 22 11 9 0 12 -5 8
-12 -4 -7 -3 -8 5 -4 6 4 9 12 6 17 -3 5 8 7 25 5 26 -3 29 -1 18 12 -11 13
-10 14 10 3 15 -8 22 -8 22 -1 0 6 5 8 10 5 6 -4 17 -1 25 5 12 10 15 10 15 0
0 -7 7 -4 18 7 9 10 14 14 10 8 -4 -6 3 -10 17 -10 13 0 21 3 19 6 -2 4 3 12
11 19 13 11 14 10 8 -6 -6 -17 -5 -17 10 -5 9 7 14 18 10 25 -3 6 4 2 16 -9
16 -13 21 -15 19 -5 -2 8 2 14 9 15 6 0 15 3 19 8 12 12 26 8 18 -6 -6 -9 -5
-9 8 0 8 7 19 9 23 5 5 -4 5 1 2 11 -6 15 -4 16 13 7 11 -6 20 -7 19 -3 -3 20
2 27 11 13 7 -11 10 -11 10 -2 0 7 5 10 10 7 6 -3 13 1 16 9 3 9 10 16 16 16
5 0 6 -6 2 -12 -10 -17 28 12 39 30 4 6 13 12 20 12 8 0 8 -3 -2 -9 -7 -5 -9
-11 -5 -13 5 -3 18 4 29 15 11 11 14 16 6 12 -10 -6 -12 -4 -7 4 6 9 11 9 22
0 11 -9 14 -9 14 1 0 7 7 10 16 6 14 -5 15 -4 5 8 -10 12 -8 13 10 9 14 -4 20
-2 16 4 -4 6 1 10 11 10 35 0 43 3 36 15 -5 7 -2 9 9 5 9 -3 18 1 21 10 4 9
13 13 22 9 12 -5 15 -2 10 11 -4 10 -4 14 0 10 4 -4 16 1 26 10 17 15 20 15
28 3 8 -12 10 -10 10 9 0 19 3 21 14 12 16 -13 32 1 21 18 -3 6 4 8 16 6 15
-3 19 0 15 10 -3 9 0 12 10 8 8 -3 21 2 28 12 7 10 18 15 25 11 6 -4 11 -4 10
1 -3 20 2 27 11 13 8 -13 10 -12 10 3 0 12 4 16 13 11 7 -5 6 0 -3 11 -9 11
-10 16 -2 11 7 -4 19 0 28 8 8 9 22 16 30 16 8 0 14 7 14 15 0 8 5 15 11 15 5
0 7 -6 3 -12 -4 -8 -3 -10 2 -5 5 5 9 13 9 18 0 5 3 8 7 7 11 -4 37 36 31 46
-4 5 -1 6 6 2 6 -4 8 -13 5 -19 -4 -7 -1 -5 7 3 8 8 21 20 29 28 13 12 13 13
0 6 -9 -4 -12 -3 -7 2 8 9 12 10 38 13 6 0 9 8 6 15 -4 11 -1 13 10 9 12 -5
14 -3 8 7 -6 10 -4 12 10 6 14 -5 16 -4 7 7 -16 19 -4 29 19 16 11 -5 18 -6
18 -2 -1 4 3 20 9 35 8 19 16 26 27 22 10 -4 15 0 15 10 0 14 11 20 32 17 4 0
4 7 1 16 -5 12 -3 14 8 8 12 -8 12 -6 0 8 -12 15 -12 17 4 11 14 -6 16 -4 10
6 -6 10 -4 12 9 7 9 -4 15 -3 12 2 -3 5 1 11 9 15 8 3 15 13 15 21 0 9 5 13
10 10 6 -3 10 1 10 9 0 9 7 16 16 16 8 0 12 5 9 10 -4 6 7 23 24 39 17 16 31
34 31 39 0 6 13 25 30 43 16 18 27 36 24 40 -2 4 1 11 7 15 8 5 9 3 4 -7 -8
-12 -6 -12 8 0 13 11 15 17 6 28 -10 11 -8 12 7 7 10 -4 16 -4 12 1 -4 4 0 14
10 22 9 8 11 11 3 7 -9 -5 -12 -3 -7 4 4 7 14 12 22 12 9 0 12 5 8 12 -4 6 1
17 11 25 11 7 15 13 10 13 -5 0 0 7 11 16 10 8 13 13 7 9 -9 -4 -11 -1 -7 9 3
9 11 13 16 10 6 -4 9 -1 6 7 -3 8 2 19 9 24 12 9 19 28 22 58 1 5 6 5 11 2 6
-3 10 3 10 14 0 12 6 21 13 21 8 0 7 4 -3 10 -10 6 -11 10 -2 10 6 0 12 7 12
16 0 8 5 12 10 9 9 -6 12 -2 14 28 1 6 8 18 16 25 13 10 13 11 -2 6 -28 -9
-21 4 10 20 23 13 24 15 7 16 -11 1 -14 4 -7 7 6 2 10 9 6 14 -3 5 0 9 6 9 6
0 8 5 5 10 -3 6 1 13 10 16 12 5 13 9 4 20 -10 12 -9 13 5 8 19 -7 21 6 4 25
-8 9 -8 11 -2 8 15 -8 24 15 19 43 -3 16 0 20 11 16 8 -3 12 -2 9 3 -3 5 -1
12 5 16 6 3 8 17 6 30 -3 18 -1 22 11 18 13 -5 14 -3 3 17 -7 12 -8 20 -2 16
14 -9 22 20 9 33 -8 8 -8 11 0 11 6 0 14 7 17 16 6 15 4 15 -10 3 -16 -13 -16
-12 -4 8 8 12 18 19 23 16 5 -3 4 5 -3 17 -10 18 -9 21 1 15 8 -6 11 -4 6 7
-3 9 0 21 6 27 8 8 7 11 -4 11 -11 1 -10 3 3 11 14 8 15 15 7 35 -8 23 -7 25
7 20 14 -5 15 -4 4 9 -10 12 -10 15 1 15 11 0 11 2 -1 10 -13 9 -13 10 0 10
13 0 13 1 0 10 -10 6 -11 10 -2 10 6 0 12 7 12 15 0 8 -6 15 -12 15 -7 0 -2
10 12 21 14 11 20 18 14 15 -19 -10 -25 23 -6 33 12 7 13 10 3 11 -9 0 -10 4
-4 13 6 6 9 26 8 42 0 17 6 39 14 49 9 11 11 16 4 13 -17 -10 -28 13 -12 24
12 7 11 9 -1 9 -12 0 -12 2 -1 9 10 7 11 13 1 31 -11 20 -10 22 4 17 15 -6 15
-4 1 17 -12 18 -13 29 -5 51 9 23 8 26 -5 21 -9 -3 -13 -2 -10 4 3 6 13 10 21
10 14 0 13 2 0 16 -13 12 -14 20 -5 36 6 11 7 18 1 14 -5 -3 -9 5 -9 19 0 14
3 22 8 19 5 -3 6 2 3 10 -3 9 -11 16 -16 16 -6 0 -5 7 3 16 10 13 10 17 -2 25
-8 5 -9 9 -3 9 6 0 11 7 11 15 0 8 -4 15 -8 15 -4 0 -9 7 -12 14 -4 10 -1 13
8 10 10 -4 12 0 8 15 -3 12 -10 21 -17 21 -6 0 -3 5 6 11 17 9 17 12 2 34 -9
14 -13 25 -9 25 5 0 0 9 -10 20 -18 20 -18 21 0 14 17 -7 18 -6 3 15 -9 12
-14 31 -11 42 3 11 0 19 -7 19 -10 0 -10 3 -1 14 9 11 9 16 1 21 -7 4 -10 16
-7 26 3 10 2 17 -2 16 -3 -1 -6 0 -7 3 0 3 -7 16 -14 30 -13 24 -12 24 5 10
17 -14 18 -14 5 10 -8 14 -13 29 -12 34 2 4 -2 14 -8 21 -5 6 -11 24 -12 38
-1 14 -6 23 -10 21 -4 -3 -8 3 -8 13 0 11 -6 25 -12 32 -7 8 -8 11 -2 8 6 -3
11 0 11 8 0 8 -4 12 -9 9 -4 -3 -8 0 -8 6 0 6 -6 8 -12 4 -10 -6 -10 -4 0 7
15 16 16 33 0 23 -8 -5 -9 0 -6 14 4 12 1 25 -4 29 -7 4 -8 1 -3 -7 5 -9 4
-11 -4 -6 -9 6 -9 11 0 22 9 11 9 14 -1 14 -7 0 -10 6 -7 14 6 14 -15 40 -25
31 -2 -3 -4 11 -3 30 1 19 -2 32 -6 29 -5 -3 -9 2 -9 10 0 8 -5 18 -12 22 -7
5 -8 3 -3 -6 5 -8 4 -11 -3 -6 -6 3 -8 19 -6 33 3 15 2 24 -2 20 -12 -12 -36
14 -24 28 7 9 3 20 -15 39 -15 16 -22 32 -18 43 4 11 3 14 -5 9 -7 -4 -12 -1
-12 8 0 8 -9 18 -21 21 -17 6 -18 9 -7 23 11 13 11 14 -1 7 -11 -6 -13 -4 -8
8 4 10 -1 22 -13 30 -11 8 -17 17 -13 20 3 4 1 7 -5 7 -7 0 -12 7 -12 15 0 8
-5 15 -11 15 -6 0 -9 7 -6 14 4 10 1 13 -9 9 -8 -3 -14 1 -14 10 0 8 -5 17
-10 19 -6 2 -12 13 -12 25 -2 14 -7 19 -17 15 -8 -3 -12 -1 -8 4 3 6 -3 16
-13 24 -10 8 -17 17 -14 22 3 4 -2 8 -11 8 -9 0 -13 5 -10 10 3 6 -1 10 -11
10 -13 0 -14 3 -5 14 9 11 9 16 0 22 -8 4 -9 3 -5 -4 4 -7 3 -12 -3 -12 -5 0
-13 9 -16 20 -4 11 -11 18 -16 15 -5 -4 -9 -1 -9 5 0 6 -6 8 -12 4 -10 -6 -10
-4 0 7 17 18 15 27 -5 25 -12 0 -19 7 -21 22 -2 12 -10 22 -19 22 -8 0 -17 9
-20 20 -3 11 -9 17 -14 14 -5 -3 -9 2 -9 10 0 9 -7 16 -16 16 -8 0 -12 5 -9
10 3 6 -1 10 -10 10 -9 0 -13 5 -10 10 3 6 -1 10 -9 10 -8 0 -18 9 -21 20 -3
11 -13 20 -22 20 -8 0 -17 9 -20 20 -3 11 -9 18 -13 15 -4 -3 -10 2 -14 10 -3
8 -13 15 -23 15 -15 0 -16 2 -3 10 12 8 11 10 -5 10 -11 0 -27 9 -35 19 -7 11
-18 17 -24 14 -5 -4 -7 1 -3 10 3 9 3 16 -1 16 -19 -3 -33 2 -28 10 4 5 -3 7
-14 4 -12 -3 -20 0 -20 6 0 7 5 9 12 5 6 -4 8 -3 5 4 -4 5 -18 9 -32 7 -21 -2
-23 0 -13 12 6 8 7 13 2 12 -15 -4 -44 12 -39 21 3 5 -4 6 -15 3 -16 -4 -20 0
-20 18 0 19 -2 21 -10 9 -7 -11 -10 -11 -10 -2 0 7 -4 10 -10 7 -5 -3 -10 1
-10 10 0 9 -4 14 -8 11 -5 -3 -20 6 -34 19 -20 18 -28 21 -38 12 -10 -9 -11
-9 -6 1 4 6 2 12 -4 12 -6 0 -8 5 -5 10 4 6 3 10 -2 9 -4 -1 -11 0 -15 1 -5 1
-14 3 -20 4 -7 1 -11 10 -10 21 3 15 1 17 -10 7 -12 -9 -19 -7 -36 9 -12 11
-22 16 -22 12 0 -4 -4 -2 -9 6 -5 8 -22 16 -38 19 -15 2 -32 8 -38 14 -7 8 -6
9 4 3 9 -5 12 -4 8 3 -4 5 -17 8 -28 5 -14 -4 -25 0 -30 10 -6 10 -18 14 -35
11 -18 -3 -23 -1 -18 7 5 9 1 10 -14 7 -23 -6 -57 23 -45 37 5 4 1 4 -7 -1
-26 -15 -43 -14 -30 1 9 11 7 12 -9 8 -13 -3 -21 -1 -21 7 0 9 -4 9 -17 -1 -9
-8 -14 -9 -10 -3 4 7 0 15 -9 18 -10 4 -13 2 -9 -7 4 -6 0 -4 -9 7 -9 11 -22
16 -31 12 -9 -3 -18 1 -22 9 -4 12 -9 13 -19 4 -10 -8 -14 -8 -14 0 0 6 -9 11
-19 11 -11 0 -23 5 -26 11 -4 6 -13 8 -21 5 -8 -3 -14 -1 -14 5 0 6 -9 5 -22
-2 -21 -11 -22 -11 -10 4 11 13 10 15 -5 12 -10 -1 -29 4 -42 12 -22 14 -23
14 -18 0 4 -11 2 -14 -9 -10 -7 3 -14 9 -14 13 0 4 -7 11 -16 14 -8 3 -12 2
-9 -4 3 -6 1 -10 -4 -10 -6 0 -11 4 -11 9 0 5 -10 7 -22 4 -19 -4 -20 -3 -8 6
8 6 10 11 4 11 -5 0 -16 -6 -23 -12 -10 -9 -12 -9 -7 -1 4 7 -1 12 -14 12 -11
1 -29 1 -40 2 -13 0 -18 5 -13 12 4 7 0 6 -10 -2 -16 -12 -22 -8 -18 12 1 5
-3 6 -9 2 -6 -3 -8 -10 -5 -15 5 -8 -8 -7 -35 3 -28 10 -60 15 -56 9 2 -4 -6
-7 -19 -7 -16 0 -21 4 -17 15 5 13 3 13 -11 1 -14 -11 -17 -11 -17 0 0 9 -3
10 -8 4 -11 -16 -46 -19 -36 -3 5 9 2 8 -11 -2 -11 -9 -16 -10 -11 -2 4 6 3
12 -3 12 -5 0 -13 -5 -17 -11 -5 -8 -9 -7 -14 1 -5 8 -15 10 -26 5 -34 -14
-46 -14 -40 1 7 19 -4 18 -21 -3 -8 -10 -12 -13 -9 -6 4 6 2 14 -4 18 -5 3
-10 3 -10 -2 0 -4 -21 -7 -47 -7 -27 1 -54 -4 -62 -10 -11 -8 -13 -8 -7 2 8
14 -3 16 -24 2 -9 -5 -19 -5 -27 2 -9 7 -13 7 -13 -1 0 -7 -5 -9 -10 -6 -6 4
-8 11 -5 16 4 5 4 9 0 9 -3 0 -8 -7 -12 -16z m-2203 -1558 c0 -3 -4 -8 -10
-11 -5 -3 -10 -1 -10 4 0 6 5 11 10 11 6 0 10 -2 10 -4z m4961 -603 c13 -16
12 -17 -3 -4 -10 7 -18 15 -18 17 0 8 8 3 21 -13z"/>
<path d="M1284 4432 c3 -5 0 -13 -6 -15 -9 -4 -10 -6 -1 -6 17 -1 25 16 12 25
-7 4 -9 3 -5 -4z"/>
<path d="M6350 3619 c0 -5 5 -7 10 -4 6 3 10 8 10 11 0 2 -4 4 -10 4 -5 0 -10
-5 -10 -11z"/>
<path d="M5866 2173 c-6 -14 -5 -15 5 -6 7 7 10 15 7 18 -3 3 -9 -2 -12 -12z"/>
<path d="M5815 2111 c-3 -5 -2 -12 3 -15 5 -3 9 1 9 9 0 17 -3 19 -12 6z"/>
<path d="M5105 1509 c-4 -6 -5 -12 -2 -15 2 -3 7 2 10 11 7 17 1 20 -8 4z"/>
</g>
</svg>
